<mxfile host="app.diagrams.net" modified="2022-08-31T01:45:46.785Z" agent="5.0 (Windows NT 10.0; Win64; x64) AppleWebKit/537.36 (KHTML, like Gecko) Chrome/104.0.5112.102 Safari/537.36 Edg/104.0.1293.70" etag="QmWLaKv5hzqonKZUTLbn" version="20.2.5" type="github" pages="2">
  <diagram id="9yQxBd88WESOBBPPKUYm" name="Trang-1">
    <mxGraphModel dx="1374" dy="800" grid="1" gridSize="10" guides="1" tooltips="1" connect="1" arrows="1" fold="1" page="1" pageScale="1" pageWidth="827" pageHeight="1169" math="0" shadow="0">
      <root>
        <mxCell id="0" />
        <mxCell id="1" parent="0" />
        <mxCell id="Z1F7sFOoVknIdEl82ZfZ-6" value="Tên Class&#xa;" style="swimlane;fontStyle=1;align=center;verticalAlign=top;childLayout=stackLayout;horizontal=1;startSize=26;horizontalStack=0;resizeParent=1;resizeParentMax=0;resizeLast=0;collapsible=1;marginBottom=0;" parent="1" vertex="1">
          <mxGeometry x="40" y="20" width="160" height="86" as="geometry" />
        </mxCell>
        <mxCell id="Z1F7sFOoVknIdEl82ZfZ-7" value="Thuộc tính" style="text;strokeColor=none;fillColor=none;align=left;verticalAlign=top;spacingLeft=4;spacingRight=4;overflow=hidden;rotatable=0;points=[[0,0.5],[1,0.5]];portConstraint=eastwest;" parent="Z1F7sFOoVknIdEl82ZfZ-6" vertex="1">
          <mxGeometry y="26" width="160" height="26" as="geometry" />
        </mxCell>
        <mxCell id="Z1F7sFOoVknIdEl82ZfZ-8" value="" style="line;strokeWidth=1;fillColor=none;align=left;verticalAlign=middle;spacingTop=-1;spacingLeft=3;spacingRight=3;rotatable=0;labelPosition=right;points=[];portConstraint=eastwest;" parent="Z1F7sFOoVknIdEl82ZfZ-6" vertex="1">
          <mxGeometry y="52" width="160" height="8" as="geometry" />
        </mxCell>
        <mxCell id="Z1F7sFOoVknIdEl82ZfZ-9" value="Phương thức" style="text;strokeColor=none;fillColor=none;align=left;verticalAlign=top;spacingLeft=4;spacingRight=4;overflow=hidden;rotatable=0;points=[[0,0.5],[1,0.5]];portConstraint=eastwest;" parent="Z1F7sFOoVknIdEl82ZfZ-6" vertex="1">
          <mxGeometry y="60" width="160" height="26" as="geometry" />
        </mxCell>
        <mxCell id="Z1F7sFOoVknIdEl82ZfZ-15" value="&lt;p style=&quot;margin:0px;margin-top:4px;text-align:center;&quot;&gt;&lt;i&gt;&amp;lt;&amp;lt;Interface&amp;gt;&amp;gt;&lt;/i&gt;&lt;br/&gt;&lt;b&gt;Interface&lt;/b&gt;&lt;/p&gt;&lt;hr size=&quot;1&quot;/&gt;&lt;p style=&quot;margin:0px;margin-left:4px;&quot;&gt;+ field1: Type&lt;br/&gt;+ field2: Type&lt;/p&gt;&lt;hr size=&quot;1&quot;/&gt;&lt;p style=&quot;margin:0px;margin-left:4px;&quot;&gt;+ method1(Type): Type&lt;br/&gt;+ method2(Type, Type): Type&lt;/p&gt;" style="verticalAlign=top;align=left;overflow=fill;fontSize=12;fontFamily=Helvetica;html=1;" parent="1" vertex="1">
          <mxGeometry x="450" y="20" width="190" height="140" as="geometry" />
        </mxCell>
        <mxCell id="Z1F7sFOoVknIdEl82ZfZ-16" value="Không có dấu gì = default&lt;br&gt;+ = public&lt;br&gt;- = private&lt;br&gt;# = protected" style="text;html=1;strokeColor=none;fillColor=none;align=left;verticalAlign=middle;whiteSpace=wrap;rounded=0;" parent="1" vertex="1">
          <mxGeometry x="650" y="20" width="150" height="60" as="geometry" />
        </mxCell>
        <mxCell id="Z1F7sFOoVknIdEl82ZfZ-17" value="Mối quan hệ của các Class: là cách mà các Class liên quan đến nhau&lt;br&gt;Có 4 mối quan hệ:&lt;br&gt;- Extends (kế thừa)&lt;br&gt;- Implements&lt;br&gt;- Composition&lt;br&gt;- Aggregation&lt;br&gt;" style="text;html=1;strokeColor=none;fillColor=none;align=left;verticalAlign=middle;whiteSpace=wrap;rounded=0;" parent="1" vertex="1">
          <mxGeometry x="40" y="106" width="210" height="114" as="geometry" />
        </mxCell>
        <mxCell id="Z1F7sFOoVknIdEl82ZfZ-23" value="" style="endArrow=block;dashed=1;endFill=0;endSize=12;html=1;rounded=0;" parent="1" edge="1">
          <mxGeometry width="160" relative="1" as="geometry">
            <mxPoint x="519" y="270" as="sourcePoint" />
            <mxPoint x="309" y="270" as="targetPoint" />
          </mxGeometry>
        </mxCell>
        <mxCell id="Z1F7sFOoVknIdEl82ZfZ-24" value="Extends" style="endArrow=block;endSize=16;endFill=0;html=1;rounded=0;" parent="1" edge="1">
          <mxGeometry width="160" relative="1" as="geometry">
            <mxPoint x="519" y="232.5" as="sourcePoint" />
            <mxPoint x="309" y="232.5" as="targetPoint" />
          </mxGeometry>
        </mxCell>
        <mxCell id="Z1F7sFOoVknIdEl82ZfZ-25" value="" style="endArrow=diamondThin;endFill=1;endSize=24;html=1;rounded=0;" parent="1" edge="1">
          <mxGeometry width="160" relative="1" as="geometry">
            <mxPoint x="519" y="310" as="sourcePoint" />
            <mxPoint x="309" y="310" as="targetPoint" />
          </mxGeometry>
        </mxCell>
        <mxCell id="Z1F7sFOoVknIdEl82ZfZ-27" value="Composition" style="text;align=center;fontStyle=1;verticalAlign=middle;spacingLeft=3;spacingRight=3;strokeColor=none;rotatable=0;points=[[0,0.5],[1,0.5]];portConstraint=eastwest;" parent="1" vertex="1">
          <mxGeometry x="374" y="290" width="80" height="20" as="geometry" />
        </mxCell>
        <mxCell id="Z1F7sFOoVknIdEl82ZfZ-28" value="" style="endArrow=diamondThin;endFill=0;endSize=24;html=1;rounded=0;" parent="1" edge="1">
          <mxGeometry width="160" relative="1" as="geometry">
            <mxPoint x="519" y="350" as="sourcePoint" />
            <mxPoint x="309" y="350" as="targetPoint" />
          </mxGeometry>
        </mxCell>
        <mxCell id="Z1F7sFOoVknIdEl82ZfZ-29" value="Implements" style="text;align=center;fontStyle=1;verticalAlign=middle;spacingLeft=3;spacingRight=3;strokeColor=none;rotatable=0;points=[[0,0.5],[1,0.5]];portConstraint=eastwest;" parent="1" vertex="1">
          <mxGeometry x="374" y="250" width="80" height="26" as="geometry" />
        </mxCell>
        <mxCell id="Z1F7sFOoVknIdEl82ZfZ-31" value="Aggregation" style="text;align=center;fontStyle=1;verticalAlign=middle;spacingLeft=3;spacingRight=3;strokeColor=none;rotatable=0;points=[[0,0.5],[1,0.5]];portConstraint=eastwest;" parent="1" vertex="1">
          <mxGeometry x="374" y="330" width="80" height="20" as="geometry" />
        </mxCell>
        <mxCell id="Z1F7sFOoVknIdEl82ZfZ-32" value="Class A" style="text;align=center;fontStyle=1;verticalAlign=middle;spacingLeft=3;spacingRight=3;strokeColor=none;rotatable=0;points=[[0,0.5],[1,0.5]];portConstraint=eastwest;" parent="1" vertex="1">
          <mxGeometry x="240" y="220" width="80" height="26" as="geometry" />
        </mxCell>
        <mxCell id="Z1F7sFOoVknIdEl82ZfZ-33" value="Class B" style="text;align=center;fontStyle=1;verticalAlign=middle;spacingLeft=3;spacingRight=3;strokeColor=none;rotatable=0;points=[[0,0.5],[1,0.5]];portConstraint=eastwest;" parent="1" vertex="1">
          <mxGeometry x="510" y="220" width="80" height="26" as="geometry" />
        </mxCell>
        <mxCell id="Z1F7sFOoVknIdEl82ZfZ-34" value="Class B" style="text;align=center;fontStyle=1;verticalAlign=middle;spacingLeft=3;spacingRight=3;strokeColor=none;rotatable=0;points=[[0,0.5],[1,0.5]];portConstraint=eastwest;" parent="1" vertex="1">
          <mxGeometry x="510" y="260" width="80" height="26" as="geometry" />
        </mxCell>
        <mxCell id="Z1F7sFOoVknIdEl82ZfZ-35" value="Class B" style="text;align=center;fontStyle=1;verticalAlign=middle;spacingLeft=3;spacingRight=3;strokeColor=none;rotatable=0;points=[[0,0.5],[1,0.5]];portConstraint=eastwest;" parent="1" vertex="1">
          <mxGeometry x="510" y="300" width="80" height="26" as="geometry" />
        </mxCell>
        <mxCell id="Z1F7sFOoVknIdEl82ZfZ-36" value="Class B" style="text;align=center;fontStyle=1;verticalAlign=middle;spacingLeft=3;spacingRight=3;strokeColor=none;rotatable=0;points=[[0,0.5],[1,0.5]];portConstraint=eastwest;" parent="1" vertex="1">
          <mxGeometry x="510" y="340" width="80" height="26" as="geometry" />
        </mxCell>
        <mxCell id="Z1F7sFOoVknIdEl82ZfZ-37" value="Class A" style="text;align=center;fontStyle=1;verticalAlign=middle;spacingLeft=3;spacingRight=3;strokeColor=none;rotatable=0;points=[[0,0.5],[1,0.5]];portConstraint=eastwest;" parent="1" vertex="1">
          <mxGeometry x="240" y="260" width="80" height="26" as="geometry" />
        </mxCell>
        <mxCell id="Z1F7sFOoVknIdEl82ZfZ-38" value="Class A" style="text;align=center;fontStyle=1;verticalAlign=middle;spacingLeft=3;spacingRight=3;strokeColor=none;rotatable=0;points=[[0,0.5],[1,0.5]];portConstraint=eastwest;" parent="1" vertex="1">
          <mxGeometry x="240" y="300" width="80" height="26" as="geometry" />
        </mxCell>
        <mxCell id="Z1F7sFOoVknIdEl82ZfZ-39" value="Class A" style="text;align=center;fontStyle=1;verticalAlign=middle;spacingLeft=3;spacingRight=3;strokeColor=none;rotatable=0;points=[[0,0.5],[1,0.5]];portConstraint=eastwest;" parent="1" vertex="1">
          <mxGeometry x="240" y="340" width="80" height="26" as="geometry" />
        </mxCell>
      </root>
    </mxGraphModel>
  </diagram>
  <diagram id="Qbo5h5n4FZLQqLkmwRTi" name="Trang-2">
    <mxGraphModel dx="1374" dy="800" grid="1" gridSize="10" guides="1" tooltips="1" connect="1" arrows="1" fold="1" page="1" pageScale="1" pageWidth="827" pageHeight="1169" math="0" shadow="0">
      <root>
        <mxCell id="0" />
        <mxCell id="1" parent="0" />
      </root>
    </mxGraphModel>
  </diagram>
</mxfile>
